<svg width="136" height="136" viewBox="0 0 136 136" fill="none" xmlns="http://www.w3.org/2000/svg">
<g filter="url(#filter0_d_71_321)">
<path d="M68 0L79.0125 8.63663L92.4917 4.87171L99.3608 17.0652L113.255 18.7452L114.935 32.6392L127.128 39.5083L123.363 52.9875L132 64L123.363 75.0125L127.128 88.4917L114.935 95.3608L113.255 109.255L99.3608 110.935L92.4917 123.128L79.0125 119.363L68 128L56.9875 119.363L43.5083 123.128L36.6392 110.935L22.7452 109.255L21.0652 95.3608L8.87171 88.4917L12.6366 75.0125L4 64L12.6366 52.9875L8.87171 39.5083L21.0652 32.6392L22.7452 18.7452L36.6392 17.0652L43.5083 4.87171L56.9875 8.63663L68 0Z" fill="#FFD43E"/>
</g>
<defs>
<filter id="filter0_d_71_321" x="0" y="0" width="136" height="136" filterUnits="userSpaceOnUse" color-interpolation-filters="sRGB">
<feFlood flood-opacity="0" result="BackgroundImageFix"/>
<feColorMatrix in="SourceAlpha" type="matrix" values="0 0 0 0 0 0 0 0 0 0 0 0 0 0 0 0 0 0 127 0" result="hardAlpha"/>
<feOffset dy="4"/>
<feGaussianBlur stdDeviation="2"/>
<feComposite in2="hardAlpha" operator="out"/>
<feColorMatrix type="matrix" values="0 0 0 0 0 0 0 0 0 0 0 0 0 0 0 0 0 0 0.25 0"/>
<feBlend mode="normal" in2="BackgroundImageFix" result="effect1_dropShadow_71_321"/>
<feBlend mode="normal" in="SourceGraphic" in2="effect1_dropShadow_71_321" result="shape"/>
</filter>
</defs>
</svg>
