<svg width="216" height="191" viewBox="0 0 216 191" fill="none" xmlns="http://www.w3.org/2000/svg">
<g filter="url(#filter0_d_71_259)">
<path d="M117 0L128.012 8.63663L141.492 4.87171L148.361 17.0652L162.255 18.7452L163.935 32.6392L176.128 39.5083L172.363 52.9875L181 64L172.363 75.0125L176.128 88.4917L163.935 95.3608L162.255 109.255L148.361 110.935L141.492 123.128L128.012 119.363L117 128L105.988 119.363L92.5083 123.128L85.6392 110.935L71.7452 109.255L70.0652 95.3608L57.8717 88.4917L61.6366 75.0125L53 64L61.6366 52.9875L57.8717 39.5083L70.0652 32.6392L71.7452 18.7452L85.6392 17.0652L92.5083 4.87171L105.988 8.63663L117 0Z" fill="#FFD43E"/>
</g>
<g filter="url(#filter1_d_71_259)">
<circle cx="161.554" cy="21.1786" r="20.1786" fill="#DFDFDF"/>
<circle cx="160.62" cy="22.1118" r="20.1786" fill="white"/>
<circle cx="189.697" cy="39.7641" r="22.3026" fill="#DFDFDF"/>
<circle cx="188.764" cy="40.6974" r="22.3026" fill="white"/>
<rect x="144.803" y="38.3609" width="42.9317" height="24.4267" fill="white"/>
<circle cx="140.623" cy="39.4328" r="22.8336" fill="#DFDFDF"/>
<circle cx="141.504" cy="40.1664" r="22.8336" fill="white"/>
</g>
<g filter="url(#filter2_d_71_259)">
<circle cx="53.3927" cy="23.4568" r="22.4568" fill="#DFDFDF"/>
<circle cx="52.354" cy="24.4955" r="22.4568" fill="white"/>
<circle cx="84.714" cy="44.1407" r="24.8207" fill="#DFDFDF"/>
<circle cx="83.6753" cy="45.1793" r="24.8207" fill="white"/>
<rect x="34.7503" y="42.5791" width="47.7789" height="27.1845" fill="white"/>
<circle cx="30.0993" cy="43.772" r="25.4116" fill="#DFDFDF"/>
<circle cx="31.0792" cy="44.5884" r="25.4116" fill="white"/>
</g>
<g filter="url(#filter3_d_71_259)">
<circle cx="113.598" cy="62.8994" r="33.4529" fill="#DFDFDF"/>
<circle cx="112.82" cy="64.4467" r="33.4529" fill="white"/>
<circle cx="161.026" cy="93.7113" r="36.9743" fill="#DFDFDF"/>
<circle cx="159.478" cy="95.2586" r="36.9743" fill="white"/>
<rect x="86.597" y="91.3851" width="71.1741" height="40.4956" fill="white"/>
<circle cx="80.3546" cy="92.831" r="37.8546" fill="#DFDFDF"/>
<circle cx="81.1282" cy="94.3783" r="37.8546" fill="white"/>
<g filter="url(#filter4_d_71_259)">
<rect x="146.964" y="138.665" width="8.09615" height="34.0038" transform="rotate(-30 146.964 138.665)" fill="#28AFE9"/>
<rect x="124.295" y="153.238" width="8.09615" height="34.0038" transform="rotate(-30 124.295 153.238)" fill="#28AFE9"/>
<rect x="90.4285" y="142.158" width="8.09615" height="34.0038" transform="rotate(-30 90.4285 142.158)" fill="#28AFE9"/>
</g>
</g>
<defs>
<filter id="filter0_d_71_259" x="49" y="0" width="136" height="136" filterUnits="userSpaceOnUse" color-interpolation-filters="sRGB">
<feFlood flood-opacity="0" result="BackgroundImageFix"/>
<feColorMatrix in="SourceAlpha" type="matrix" values="0 0 0 0 0 0 0 0 0 0 0 0 0 0 0 0 0 0 127 0" result="hardAlpha"/>
<feOffset dy="4"/>
<feGaussianBlur stdDeviation="2"/>
<feComposite in2="hardAlpha" operator="out"/>
<feColorMatrix type="matrix" values="0 0 0 0 0 0 0 0 0 0 0 0 0 0 0 0 0 0 0.25 0"/>
<feBlend mode="normal" in2="BackgroundImageFix" result="effect1_dropShadow_71_259"/>
<feBlend mode="normal" in="SourceGraphic" in2="effect1_dropShadow_71_259" result="shape"/>
</filter>
<filter id="filter1_d_71_259" x="113.79" y="1" width="102.21" height="70" filterUnits="userSpaceOnUse" color-interpolation-filters="sRGB">
<feFlood flood-opacity="0" result="BackgroundImageFix"/>
<feColorMatrix in="SourceAlpha" type="matrix" values="0 0 0 0 0 0 0 0 0 0 0 0 0 0 0 0 0 0 127 0" result="hardAlpha"/>
<feOffset dy="4"/>
<feGaussianBlur stdDeviation="2"/>
<feComposite in2="hardAlpha" operator="out"/>
<feColorMatrix type="matrix" values="0 0 0 0 0 0 0 0 0 0 0 0 0 0 0 0 0 0 0.25 0"/>
<feBlend mode="normal" in2="BackgroundImageFix" result="effect1_dropShadow_71_259"/>
<feBlend mode="normal" in="SourceGraphic" in2="effect1_dropShadow_71_259" result="shape"/>
</filter>
<filter id="filter2_d_71_259" x="0.68766" y="1" width="112.847" height="77" filterUnits="userSpaceOnUse" color-interpolation-filters="sRGB">
<feFlood flood-opacity="0" result="BackgroundImageFix"/>
<feColorMatrix in="SourceAlpha" type="matrix" values="0 0 0 0 0 0 0 0 0 0 0 0 0 0 0 0 0 0 127 0" result="hardAlpha"/>
<feOffset dy="4"/>
<feGaussianBlur stdDeviation="2"/>
<feComposite in2="hardAlpha" operator="out"/>
<feColorMatrix type="matrix" values="0 0 0 0 0 0 0 0 0 0 0 0 0 0 0 0 0 0 0.25 0"/>
<feBlend mode="normal" in2="BackgroundImageFix" result="effect1_dropShadow_71_259"/>
<feBlend mode="normal" in="SourceGraphic" in2="effect1_dropShadow_71_259" result="shape"/>
</filter>
<filter id="filter3_d_71_259" x="38.5" y="29.4465" width="163.5" height="161.24" filterUnits="userSpaceOnUse" color-interpolation-filters="sRGB">
<feFlood flood-opacity="0" result="BackgroundImageFix"/>
<feColorMatrix in="SourceAlpha" type="matrix" values="0 0 0 0 0 0 0 0 0 0 0 0 0 0 0 0 0 0 127 0" result="hardAlpha"/>
<feOffset dy="4"/>
<feGaussianBlur stdDeviation="2"/>
<feComposite in2="hardAlpha" operator="out"/>
<feColorMatrix type="matrix" values="0 0 0 0 0 0 0 0 0 0 0 0 0 0 0 0 0 0 0.25 0"/>
<feBlend mode="normal" in2="BackgroundImageFix" result="effect1_dropShadow_71_259"/>
<feBlend mode="normal" in="SourceGraphic" in2="effect1_dropShadow_71_259" result="shape"/>
</filter>
<filter id="filter4_d_71_259" x="86.4285" y="134.617" width="88.5489" height="56.0693" filterUnits="userSpaceOnUse" color-interpolation-filters="sRGB">
<feFlood flood-opacity="0" result="BackgroundImageFix"/>
<feColorMatrix in="SourceAlpha" type="matrix" values="0 0 0 0 0 0 0 0 0 0 0 0 0 0 0 0 0 0 127 0" result="hardAlpha"/>
<feOffset dy="4"/>
<feGaussianBlur stdDeviation="2"/>
<feComposite in2="hardAlpha" operator="out"/>
<feColorMatrix type="matrix" values="0 0 0 0 0 0 0 0 0 0 0 0 0 0 0 0 0 0 0.25 0"/>
<feBlend mode="normal" in2="BackgroundImageFix" result="effect1_dropShadow_71_259"/>
<feBlend mode="normal" in="SourceGraphic" in2="effect1_dropShadow_71_259" result="shape"/>
</filter>
</defs>
</svg>
